Coordinates
version=1
nRows=27
nColumns=38
inDegrees=no

Units are S.I. units (second, meters, Newtons, ...)
If the header above contains a line with 'inDegrees', this indicates whether rotational values are in degrees (yes) or radians (no).

endheader
time	pelvis_tilt	pelvis_list	pelvis_rotation	pelvis_tx	pelvis_ty	pelvis_tz	hip_flexion_r	hip_adduction_r	hip_rotation_r	knee_angle_r	ankle_angle_r	subtalar_angle_r	mtp_angle_r	hip_flexion_l	hip_adduction_l	hip_rotation_l	knee_angle_l	ankle_angle_l	subtalar_angle_l	mtp_angle_l	lumbar_extension	lumbar_bending	lumbar_rotation	arm_flex_r	arm_add_r	arm_rot_r	elbow_flex_r	pro_sup_r	wrist_flex_r	wrist_dev_r	arm_flex_l	arm_add_l	arm_rot_l	elbow_flex_l	pro_sup_l	wrist_flex_l	wrist_dev_l
1.15	1.81966	1.44307	-0.287336	0.742697	0.294043	0.933213	0.229359	0.17675	-0.295374	0.280932	-0.0230012	0	0	0.0396179	-0.264127	-0.229999	0.98399	-0.315675	0	0	-0.162675	0.176009	0.0829219	0.0641585	-0.35034	0.963975	0.393311	0.689939	0	0	-0.0574346	-0.183712	0.0623248	0.518566	1.5708	0	0
1.16	1.83723	1.44051	-0.310221	0.744298	0.303624	0.934437	0.214195	0.180981	-0.286281	0.281287	-0.0146512	0	0	0.0737012	-0.271036	-0.207519	1.03493	-0.364437	0	0	-0.166701	0.176937	0.090564	0.0645518	-0.352803	0.964556	0.39514	0.688816	0	0	-0.0597459	-0.183254	0.058671	0.526174	1.5708	0	0
1.17	1.86807	1.43898	-0.345501	0.745821	0.313011	0.935935	0.196391	0.183587	-0.277967	0.279289	-0.00778645	0	0	0.105416	-0.273952	-0.186006	1.08129	-0.389192	0	0	-0.172543	0.175774	0.0973592	0.0655575	-0.352747	0.95992	0.39344	0.697082	0	0	-0.0627871	-0.184476	0.060048	0.537637	1.5708	0	0
1.18	1.90626	1.43831	-0.387339	0.747301	0.322182	0.937581	0.176788	0.185077	-0.270461	0.274628	-0.00212851	0	0	0.136623	-0.274136	-0.164032	1.12589	-0.394746	0	0	-0.179202	0.173018	0.103416	0.0671977	-0.350982	0.95639	0.389402	0.70465	0	0	-0.0641088	-0.185301	0.0610133	0.546144	1.5708	0	0
1.19	1.94835	1.43847	-0.433387	0.748864	0.3312	0.939327	0.15605	0.185818	-0.262687	0.26766	0.00282453	0	0	0.16813	-0.272818	-0.142152	1.1711	-0.371535	0	0	-0.186209	0.168667	0.109729	0.0689248	-0.347441	0.950137	0.383179	0.716237	0	0	-0.0644493	-0.185914	0.0615727	0.552296	1.5708	0	0
1.2	1.99538	1.43934	-0.484621	0.75049	0.34005	0.941158	0.13448	0.185616	-0.254945	0.259236	0.00657064	0	0	0.198878	-0.269992	-0.122698	1.21412	-0.328055	0	0	-0.193523	0.16291	0.115804	0.0721071	-0.345632	0.958668	0.380578	0.70079	0	0	-0.0639504	-0.186098	0.0610439	0.556861	1.5708	0	0
1.21	2.03799	1.44089	-0.532313	0.752222	0.348738	0.942927	0.113362	0.185139	-0.246016	0.249158	0.00969706	0	0	0.229116	-0.266491	-0.106875	1.25147	-0.285274	0	0	-0.199904	0.156237	0.123	0.0739718	-0.340685	0.950297	0.373523	0.709873	0	0	-0.0621612	-0.185948	0.0606226	0.559919	1.5708	0	0
1.22	2.08052	1.44221	-0.580519	0.753945	0.357339	0.944723	0.0916714	0.184442	-0.236148	0.237489	0.0106758	0	0	0.257497	-0.26243	-0.0935321	1.28157	-0.251902	0	0	-0.206227	0.14966	0.130641	0.075839	-0.335599	0.940606	0.366383	0.721095	0	0	-0.0602109	-0.185675	0.060959	0.563234	1.5708	0	0
1.23	2.12862	1.44382	-0.634563	0.755584	0.365846	0.946555	0.0700233	0.181989	-0.227625	0.225939	0.0111909	0	0	0.283962	-0.256002	-0.0814831	1.30501	-0.228325	0	0	-0.21268	0.142358	0.138389	0.0779533	-0.331326	0.932007	0.360312	0.730773	0	0	-0.0572516	-0.185098	0.0614353	0.565417	1.5708	0	0
1.24	2.17564	1.44615	-0.687568	0.757128	0.374188	0.948255	0.0503598	0.178086	-0.220808	0.21587	0.0125334	0	0	0.309601	-0.248644	-0.0720901	1.32193	-0.212027	0	0	-0.218069	0.13464	0.146186	0.0801758	-0.327868	0.922357	0.3551	0.739285	0	0	-0.0526779	-0.184251	0.0624578	0.56535	1.5708	0	0
1.25	2.22042	1.44878	-0.739	0.758676	0.382439	0.949838	0.0319692	0.173553	-0.213223	0.206627	0.0139467	0	0	0.334097	-0.241429	-0.0656353	1.33283	-0.199512	0	0	-0.222307	0.127176	0.153648	0.0848494	-0.331004	0.949446	0.359184	0.696214	0	0	-0.0478377	-0.18317	0.063002	0.563646	1.5708	0	0
1.26	2.26403	1.45085	-0.789639	0.760215	0.390674	0.951404	0.0133349	0.169179	-0.205149	0.196604	0.0147108	0	0	0.356754	-0.234842	-0.0611498	1.33814	-0.188046	0	0	-0.226537	0.12017	0.162391	0.0870415	-0.33051	0.944563	0.357367	0.700064	0	0	-0.0414818	-0.1821	0.0654944	0.559589	1.5708	0	0
1.27	2.30402	1.45267	-0.83719	0.761737	0.398836	0.952867	-0.00479311	0.16503	-0.197012	0.186278	0.01517	0	0	0.378021	-0.229159	-0.0589518	1.33867	-0.175236	0	0	-0.230323	0.113747	0.171561	0.0892289	-0.331158	0.939712	0.356888	0.704999	0	0	-0.0343216	-0.180874	0.0679777	0.553958	1.5708	0	0
1.28	2.34145	1.45498	-0.883259	0.763332	0.406928	0.954204	-0.0216528	0.160703	-0.188067	0.176433	0.0155283	0	0	0.397942	-0.224246	-0.0596143	1.33427	-0.156999	0	0	-0.233416	0.106786	0.182795	0.0879617	-0.323451	0.878289	0.343631	0.792445	0	0	-0.0256676	-0.180422	0.0740942	0.546534	1.5708	0	0
1.29	2.50725	1.45373	-1.05904	0.765512	0.414373	0.957476	-0.0514176	0.146212	-0.172855	0.163367	0.0138266	0	0	0.404961	-0.211734	-0.0686276	1.32273	-0.146448	0	0	-0.25021	0.0871087	0.191709	0.0973968	-0.326648	0.91825	0.349377	0.729656	0	0	-0.0133309	-0.182548	0.0785796	0.537715	1.5708	0	0
1.3	2.55752	1.45436	-1.11625	0.766869	0.422653	0.958682	-0.0710238	0.141027	-0.162182	0.150662	0.014802	0	0	0.419367	-0.206323	-0.0725568	1.308	-0.124484	0	0	-0.252877	0.0801769	0.199016	0.0995373	-0.328132	0.916638	0.350369	0.730866	0	0	-0.00701191	-0.182996	0.0847417	0.532995	1.5708	0	0
1.31	2.49638	1.458	-1.05995	0.767556	0.431633	0.957991	-0.0817251	0.145969	-0.154197	0.138044	0.0176614	0	0	0.43975	-0.208444	-0.0715011	1.28953	-0.0915984	0	0	-0.243173	0.0862734	0.205274	0.0973163	-0.33392	0.914839	0.355698	0.733221	0	0	-0.00594479	-0.181225	0.0902613	0.530094	1.5708	0	0
1.32	2.54652	1.45827	-1.11567	0.768785	0.439974	0.959044	-0.101791	0.140903	-0.145372	0.124594	0.0185215	0	0	0.45068	-0.202674	-0.0763779	1.26613	-0.0710919	0	0	-0.245865	0.0799877	0.210576	0.0999406	-0.334235	0.912815	0.355445	0.735788	0	0	-0.000245081	-0.181687	0.0947332	0.524425	1.5708	0	0
1.33	2.59377	1.4578	-1.16904	0.770071	0.448387	0.959998	-0.12277	0.136273	-0.135045	0.11007	0.0176965	0	0	0.459641	-0.197472	-0.0820905	1.23943	-0.0545197	0	0	-0.248725	0.0740705	0.215828	0.103049	-0.333838	0.911676	0.35396	0.740261	0	0	0.00463217	-0.181875	0.098223	0.519532	1.5708	0	0
1.34	2.72269	1.45398	-1.30356	0.771705	0.456032	0.962214	-0.149902	0.123492	-0.123878	0.093985	0.0150297	0	0	0.461819	-0.195333	-0.106372	1.20848	-0.0538644	0	0	-0.260731	0.0577986	0.218996	0.110498	-0.329371	0.911615	0.348962	0.745343	0	0	0.0135823	-0.184088	0.101413	0.513293	1.5708	0	0
1.35	2.66239	1.45675	-1.24851	0.772525	0.465295	0.961275	-0.163801	0.129318	-0.115178	0.0798343	0.0169218	0	0	0.473208	-0.200396	-0.111256	1.17532	-0.0344839	0	0	-0.252546	0.0648447	0.223851	0.109589	-0.332237	0.910681	0.350604	0.751094	0	0	0.0121292	-0.182032	0.102839	0.510974	1.5708	0	0
1.36	2.79173	1.45185	-1.38211	0.773916	0.47274	0.963349	-0.190394	0.115353	-0.106383	0.0645005	0.0159778	0	0	0.469288	-0.196822	-0.139633	1.13459	-0.0376794	0	0	-0.265429	0.0480023	0.22485	0.118106	-0.326648	0.908142	0.344067	0.759317	0	0	0.0215788	-0.183546	0.104884	0.504407	1.5708	0	0
1.37	2.81693	1.45167	-1.41113	0.774899	0.480974	0.963592	-0.208172	0.111717	-0.100175	0.0516789	0.0178211	0	0	0.471346	-0.195322	-0.154612	1.09175	-0.0297462	0	0	-0.266901	0.0440396	0.226078	0.122465	-0.324768	0.905877	0.341229	0.767559	0	0	0.0244672	-0.183088	0.106116	0.501346	1.5708	0	0
1.38	2.84202	1.45022	-1.44028	0.775945	0.489236	0.963781	-0.229675	0.108591	-0.0890413	0.0335675	0.0148293	0	0	0.469202	-0.194113	-0.172371	1.04434	-0.0207355	0	0	-0.269474	0.0405066	0.226083	0.12972	-0.328871	0.944502	0.347418	0.721204	0	0	0.0279305	-0.181536	0.102248	0.493266	1.5708	0	0
1.39	2.78024	1.45449	-1.38191	0.776593	0.498261	0.962255	-0.241442	0.114613	-0.0824675	0.0212953	0.0163017	0	0	0.471565	-0.198598	-0.184761	0.99279	-0.00293321	0	0	-0.261598	0.0482693	0.227448	0.130626	-0.330988	0.946692	0.348779	0.724125	0	0	0.0262971	-0.178885	0.100126	0.489175	1.5708	0	0
1.4	2.88677	1.44848	-1.49219	0.777813	0.505749	0.963499	-0.265381	0.101414	-0.0772411	0.00898457	0.0162177	0	0	0.459635	-0.189056	-0.211115	0.93782	-0.00529624	0	0	-0.273853	0.0331646	0.226069	0.139575	-0.326448	0.94819	0.344634	0.726502	0	0	0.0345141	-0.179406	0.0967521	0.481608	1.5708	0	0
1.41	2.822	1.45406	-1.43037	0.778422	0.514761	0.961587	-0.274572	0.10752	-0.0711389	2.23056e-08	0.01955	0	0	0.458253	-0.192662	-0.227249	0.877608	0.00690089	0	0	-0.265186	0.041237	0.226773	0.140628	-0.328411	0.949626	0.34628	0.728942	0	0	0.0324041	-0.177278	0.0944882	0.479061	1.5708	0	0
